<?xml version="1.0" encoding="UTF-8" standalone="no"?>
<svg
   viewBox="0 0 237.86198 289.72122"
   version="1.1"
   id="svg4"
   sodipodi:docname="pp-vectormaker-co.svg"
   width="237.86198"
   height="289.72122"
   inkscape:version="1.3.2 (091e20ef0f, 2023-11-25, custom)"
   xmlns:inkscape="http://www.inkscape.org/namespaces/inkscape"
   xmlns:sodipodi="http://sodipodi.sourceforge.net/DTD/sodipodi-0.dtd"
   xmlns="http://www.w3.org/2000/svg"
   xmlns:svg="http://www.w3.org/2000/svg">
  <defs
     id="defs4" />
  <sodipodi:namedview
     id="namedview4"
     pagecolor="#ffffff"
     bordercolor="#000000"
     borderopacity="0.25"
     inkscape:showpageshadow="2"
     inkscape:pageopacity="0.0"
     inkscape:pagecheckerboard="0"
     inkscape:deskcolor="#d1d1d1"
     inkscape:zoom="1.9901961"
     inkscape:cx="20.852217"
     inkscape:cy="178.37438"
     inkscape:window-width="1920"
     inkscape:window-height="1016"
     inkscape:window-x="0"
     inkscape:window-y="0"
     inkscape:window-maximized="1"
     inkscape:current-layer="svg4" />
  <path
     fill="#e58c97"
     stroke="#e58c97"
     d="m 115.19534,0.89588666 c -3.025,0.35800004 -5.982,0.96000004 -6.57,1.33800004 -0.589,0.378 -2.164,0.899 -3.5,1.158 -27.057996,5.236 -43.784996,26.4900003 -54.013996,68.6340003 -1.824,7.516 -2.075,18.767 -0.519,23.348 0.829,2.443 2.037,7.526003 2.684,11.297003 1.827,10.648 9.129,22.617 14.642,24 2.715,0.682 2.741,0.073 -0.509,11.771 -1.291,4.646 -2.955,8.003 -5.068,10.223 -1.73,1.819 -3.146,3.924 -3.146,4.679 0,0.755 -0.946,2.228 -2.102,3.275 -2.651,2.399 -4.898,6.691 -4.898,9.357 0,1.534 -0.646,2.05 -2.566,2.05 -3.733,0 -6.156,1.599 -8.823,5.825 -1.68,2.66 -4.488,4.841 -9.736,7.563 -8.679,4.5 -12.599,7.991 -17.959,15.994 -2.571,3.838 -5.4120001,6.67 -8.1780001,8.15 l -4.23799998,2.269 -0.164,29.35 c -0.211,37.809 0.443,40.791 9.62300008,43.859 13.624,4.553 210.045996,5.892 218.273996,1.488 2.053,-1.099 3.995,-2.783 4.316,-3.742 0.32,-0.959 1.244,-2.406 2.053,-3.215 1.913,-1.913 2.973,-29.188 2.417,-62.193 -0.01,-0.634 -1.257,-1.661 -2.769,-2.282 -1.512,-0.621 -5.45,-2.653 -8.75,-4.516 -3.3,-1.863 -6.788,-3.424 -7.75,-3.469 -0.962,-0.044 -1.75,-0.421 -1.75,-0.836 0,-0.415 -3.825,-2.749 -8.5,-5.186 -5.753,-3 -8.5,-4.999 -8.5,-6.186 0,-0.965 -0.415,-2.012 -0.923,-2.325 -0.508,-0.314 -1.205,-1.853 -1.549,-3.419 -0.658,-2.997 -4.394,-7.042 -8.422,-9.119 -1.317,-0.679 -4.285,-2.977 -6.595,-5.107 -2.31,-2.129 -6.778,-5.051 -9.928,-6.494 -7.027,-3.217 -7.288,-3.836 -4.209,-9.992 2.469,-4.937 4.876,-13.25 6.129,-21.167 0.476,-3.005 1.16,-4.259 2.335,-4.282 3.663,-0.07 8.344,-7.09 9.759,-14.636 0.347,-1.848 1.312,-3.742 2.145,-4.208 1.051,-0.588 1.169,-1.061 0.386,-1.545 -1.41,-0.871 -1.461,-9.841 -0.083,-14.802003 0.819,-2.949 0.708,-4.355 -0.536,-6.759 -1.495,-2.892 -1.45,-3.211 0.961,-6.759 3.177,-4.676 3.184,-7.771 0.03,-14.665 -1.375,-3.006 -2.5,-6.358 -2.5,-7.449 0,-4.538 -4.775,-19.917 -9.66,-31.108 -3.197,-7.327 -18.392,-21.037 -23.315,-21.037 -0.564,0 -1.025,-0.3980003 -1.025,-0.8840003 0,-1.216 -11.708,-6.791 -16,-7.618 -5.481,-1.05600004 -14.977,-1.34000004 -21,-0.62800004 m 23,5.13000004 c 0,0.55 0.477,1 1.059,1 0.582,0 0.781,-0.45 0.441,-1 -0.34,-0.55 -0.816,-1 -1.059,-1 -0.243,0 -0.441,0.45 -0.441,1 m -3.921,50.5830003 c 0.048,1.165 0.285,1.402 0.604,0.605 0.289,-0.722 0.253,-1.585 -0.079,-1.917 -0.332,-0.332 -0.568,0.258 -0.525,1.312 m 0.325,8.572 c -0.363,0.588 -0.062,1.439 0.67,1.891 1.424,0.88 2.926,0.368 2.926,-0.998 0,-1.346 -2.875,-2.059 -3.596,-0.893 m -30.404,36.845003 c 0,0.55 0.477,1 1.059,1 0.582,0 0.781,-0.45 0.441,-1 -0.34,-0.55 -0.816,-1 -1.059,-1 -0.243,0 -0.441,0.45 -0.441,1 m 132.349,105 c 0,4.675 0.173,6.587 0.383,4.25 0.211,-2.337 0.211,-6.163 0,-8.5 -0.21,-2.337 -0.383,-0.425 -0.383,4.25"
     fill-rule="evenodd"
     id="path1"
     style="opacity:0.278967"
     sodipodi:nodetypes="cccccccccscsscccccccccscsscscscccccccccscccccscsscccsssccsscccsccsssccccc" />
  <path
     fill="#fbfbfb"
     stroke="#fbfbfb"
     d="m 81.945344,-29.225113 c 14.437,0.156 38.061996,0.156 52.499996,0 14.437,-0.156 2.625,-0.284 -26.25,-0.284 -28.874996,0 -40.687996,0.128 -26.249996,0.284 m 111.999996,-0.043 c 1.238,0.238 3.262,0.238 4.5,0 1.238,-0.239 0.225,-0.434 -2.25,-0.434 -2.475,0 -3.488,0.195 -2.25,0.434 m -78.75,31.3159997 c -9.499,1.388 -13.042,2.383 -21.999996,6.18 -8.302,3.5180003 -9.379,4.2700003 -16.565,11.5500003 -18.437,18.678 -29.828,55.946 -24.376,79.748 3.708,16.191003 4.245,17.744003 7.737,22.398003 3.599,4.795 5.994,7.493 4.883,5.499 -1.181,-2.119 1.888,-5.001 3.713,-3.487 1.782,1.479 2.17,4.09 0.608,4.09 -1.764,0 -1.067,1.844 0.937,2.48 1.885,0.598 1.872,0.79 -0.5,7.09 -1.34,3.562 -2.437,7.49 -2.437,8.73 0,2.216 -5.893,10.866 -10.629,15.602 -1.326,1.326 -2.669,3.578 -2.984,5.005 -1.296,5.865 -1.47,6.092 -4.704,6.125 -3.685,0.037 -5.519,1.314 -7.866,5.481 -0.926,1.643 -2.501,3.437 -3.5,3.987 -0.999,0.55 -2.042,1.231 -2.317,1.513 -0.275,0.283 -2.74,1.633 -5.478,3 -6.068,3.031 -14.185,10.991 -17.413,17.076 -1.828,3.446 -3.4120001,4.925 -6.7490001,6.306 -3.55,1.468 -4.374,2.295 -4.437,4.454 -0.58099998,20.132 0.431,57.978 1.66,62.119 3.07,10.336 7.4130001,10.756 116.4169961,11.246 42.499,0.191 88.508,0.087 94.5,-0.213 1.1,-0.055 4.025,-0.191 6.5,-0.301 4.785,-0.213 8.721,-2.445 12.956,-7.346 l 2.456,-2.843 0.419,-29.804 c 0.397,-28.227 0.32,-29.881 -1.456,-31.279 -2.479,-1.952 -11.043,-6.428 -12.297,-6.428 -0.544,0 -2.697,-1.161 -4.784,-2.579 -2.087,-1.419 -7.041,-4.143 -11.01,-6.053 -6.98,-3.361 -7.269,-3.645 -8.863,-8.703 -2.067,-6.554 -3.585,-8.423 -10.433,-12.836 -3.019,-1.945 -6.387,-4.548 -7.486,-5.785 -1.098,-1.237 -4.75,-3.497 -8.114,-5.022 -7.774,-3.525 -7.959,-3.898 -5.066,-10.244 2.7,-5.924 5.154,-14.102 6.201,-20.668 0.823,-5.163 5.062,-14.059 6.78,-14.228 0.658,-0.066 1.588,-0.048 2.065,0.039 0.478,0.087 0.582,-0.985 0.231,-2.382 -0.637,-2.538 0.825,-3.651 1.694,-1.289 0.253,0.688 0.795,-0.01 1.205,-1.551 0.553,-2.082 0.315,-3.115 -0.928,-4.024 -1.191,-0.871 -1.562,-2.295 -1.29,-4.946 0.419,-4.087 1.72,-6.322 1.72,-2.955 0,1.16 0.45,2.386 1,2.726 0.609,0.376 1,-1.107 1,-3.792 0,-2.425 0.517,-5.892003 1.149,-7.705003 0.961,-2.756 0.853,-3.843 -0.657,-6.647 -1.629,-3.025 -1.655,-3.524 -0.269,-5.104 4.878,-5.563 5.216,-10.395 1.174,-16.752 -0.699,-1.1 -1.769,-5.15 -2.376,-9 -2.215,-14.038 -9.779,-32.077 -16.106,-38.41 -5.313,-5.318 -21.395,-16.0900003 -24.022,-16.0900003 -0.679,0 -2.031,-0.72 -3.003,-1.6 -0.973,-0.88 -3.483,-1.78 -5.579,-2.001 -9.515,-1.001 -16.23,-1.12 -21.311,-0.377 m 22.923,2.228 c -0.709,2.318 -0.537,3.788 0.407,3.474 1.511,-0.503 2.154,-3.724 0.743,-3.724 -0.59,0 -1.107,0.112 -1.15,0.25 m -1.285,9.2500003 c -0.316,0.825 -0.187,1.5 0.286,1.5 0.474,0 1.121,-0.675 1.438,-1.5 0.316,-0.825 0.187,-1.5 -0.286,-1.5 -0.474,0 -1.121,0.675 -1.438,1.5 m 0.001,9.194 c -1.126,1.126 -0.685,2.306 0.861,2.306 0.825,0 1.5,-0.423 1.5,-0.941 0,-1.261 -1.562,-2.164 -2.361,-1.365 m -0.639,8.806 c 0,0.825 0.45,1.5 1,1.5 0.55,0 1,-0.675 1,-1.5 0,-0.825 -0.45,-1.5 -1,-1.5 -0.55,0 -1,0.675 -1,1.5 m -1,6.5 c 0,0.55 0.45,1 1,1 0.55,0 1,-0.45 1,-1 0,-0.55 -0.45,-1 -1,-1 -0.55,0 -1,0.45 -1,1 m -0.349,10.468 c -0.633,1.648 0.841,2.964 2.305,2.059 1.062,-0.656 0.283,-3.527 -0.956,-3.527 -0.432,0 -1.04,0.661 -1.349,1.468 m -1.012,6.226 c -0.351,0.352 -0.641,1.802 -0.643,3.223 -0.004,2.491 -0.218,2.583 -6.034,2.583 -3.512,0 -6.332,-0.487 -6.753,-1.166 -0.522,-0.841 -2.104,-0.909 -5.675,-0.241 -5.388,1.006 -6.807,1.936 -7.083,4.641 -0.1,0.971 -0.515,3.004 -0.924,4.516 -0.587,2.168 -0.404,2.75 0.865,2.75 2.829,0 2.147,7.243 -0.811,8.614 -1.386,0.642 -2.97,0.755 -3.742,0.265 -1.859,-1.178 -3.038996,-1.042 -5.206996,0.599 -2.801,2.122 1.68,5.52 11.997996,9.096 8.903,3.087 8.979,3.167 11.715,12.426003 2.39,8.087 2.183,19.053 -0.455,24.152 -0.685,1.323 -0.461,1.549 1.127,1.133 1.171,-0.306 1.983,-0.022 1.983,0.692 0,0.666 -0.9,1.446 -2,1.733 -4.231,1.107 -0.574,7.29 4.311,7.29 4.621,0 6.961,-8.629 2.95,-10.874 -2.549,-1.426 -3.127,-15.781 -0.831,-20.62 0.904,-1.905 2.308,-5.347 3.12,-7.649003 1.694,-4.801 3.309,-7.062 4.511,-6.319 0.46,0.284 3.431,-0.396 6.603,-1.511 3.171,-1.115 6.393,-2.027 7.157,-2.027 0.765,0 2.276,-1.125 3.358,-2.5 1.081,-1.375 2.608,-2.5 3.394,-2.5 0.785,0 1.427,-0.45 1.427,-1 0,-0.55 -0.874,-1 -1.943,-1 -1.069,0 -2.581,-0.91 -3.36,-2.022 -1.251,-1.786 -1.563,-1.844 -2.679,-0.5 -0.695,0.837 -1.733,1.522 -2.307,1.522 -0.574,0 -0.789,-0.255 -0.477,-0.567 1.746,-1.746 -3.244,-11.433 -5.889,-11.433 -0.666,0 -1.487,-0.871 -1.825,-1.936 -0.338,-1.064 -1.38,-2.137 -2.317,-2.384 -1.564,-0.411 -1.56,-0.457 0.047,-0.564 2.129,-0.141 2.362,-2.116 0.25,-2.116 -0.993,0 -1.5,-0.993 -1.5,-2.941 0,-2.935 -1.15,-4.575 -2.361,-3.365 m 7.361,7.141 c 0,1.856 1.207,4.165 2.177,4.165 1.39,0 0.559,-4.266 -0.927,-4.755 -0.687,-0.226 -1.25,0.039 -1.25,0.59 m 3.931,3.749 c -1.477,1.779 -1.288,1.966 2.78,2.74 3.424,0.651 5.077,-0.471 3.028,-2.055 -2.42,-1.872 -4.609,-2.13 -5.808,-0.685 m -11.931,3.416 c 0,0.55 0.675,1 1.5,1 0.825,0 1.5,-0.45 1.5,-1 0,-0.55 -0.675,-1 -1.5,-1 -0.825,0 -1.5,0.45 -1.5,1 m 15,25 c -1.135,0.734 -0.695,0.973 1.809,0.985 1.955,0.009 3.056,-0.394 2.691,-0.985 -0.776,-1.256 -2.556,-1.256 -4.5,0 m -44.48,6.936003 c -0.36,1.135 -1.164,2.064 -1.787,2.064 -0.825,0 -0.833,0.3 -0.032,1.101 1.361,1.361 7.555,0.168 7.047,-1.357 -0.902,-2.705 -4.543,-3.965003 -5.228,-1.808 m -42.890996,1.406 c -1.032,4.114 0.196,7.976 1.972,6.2 1.77,-1.77 1.789,-4.626 0.047,-7.009 -1.275,-1.743003 -1.39,-1.696003 -2.019,0.809 m 30.371,-1.377 c 0,1.214 3.969,3.399 4.752,2.616 0.32,-0.32 0.056,-0.581 -0.585,-0.581 -0.642,0 -1.167,-0.675 -1.167,-1.5 0,-0.825 -0.675,-1.5 -1.5,-1.5 -0.825,0 -1.5,0.434 -1.5,0.965 m 63.999996,0.413 c 0,0.757 -0.686,1.946 -1.524,2.642 -2.179,1.809 -1.183,2.259 1.895,0.857 2.806,-1.279 3.639,-4.877 1.129,-4.877 -0.825,0 -1.5,0.62 -1.5,1.378 m -14.02,1.146 c -0.696,0.838 -1.012,1.778 -0.702,2.088 1.233,1.232 8.252,2.258 9.171,1.339 0.601,-0.601 0.329,-0.951 -0.741,-0.951 -0.93,0 -2.253,-0.9 -2.94,-2 -1.493,-2.39 -3.069,-2.547 -4.788,-0.476 m -33.48,4.476 c -1.676,0.72 -1.474,0.871 1.25,0.93 1.787,0.038 3.25,-0.38 3.25,-0.93 0,-1.187 -1.737,-1.187 -4.5,0 m 31.188,0.646 c -1.374,1.374 -0.662,3.496 1.062,3.164 0.963,-0.186 1.75,-0.969 1.75,-1.74 0,-1.579 -1.764,-2.472 -2.812,-1.424 m -56.687996,1.854 c 0,0.825 -0.49,1.5 -1.088,1.5 -1.611,0 -0.167,7.125 3.019,14.9 1.487,3.63 3.236,6.488 3.887,6.35 0.65,-0.137 1.182,0.409 1.182,1.215 0,1.972 5.968,8.673 7.101,7.973 0.494,-0.306 0.899,0.097 0.899,0.896 0,1.654 2.088,2.666 5.497996,2.666 1.285,0 2.485,0.407 2.669,0.905 0.183,0.497 1.458,1.06 2.833,1.25 2.953,0.408 4.038,-3.847 1.967,-7.716 -0.72,-1.345 -0.958,-3.969 -0.597,-6.588 0.735,-5.341 0.751,-5.697 0.632,-14.263 -0.065,-4.663 0.326,-7.179 1.201,-7.735 1.414,-0.897 -0.788,-1.329 -4.953,-0.971 -1.238,0.107 -2.25,-0.3 -2.25,-0.903 0,-0.603 -0.447,-0.821 -0.993,-0.483 -4.783996,2.956 -13.730996,3.441 -15.306996,0.829 -1.117,-1.852 -5.7,-1.712 -5.7,0.175 m -20,2.5 c 0,0.55 0.45,1 1,1 0.55,0 1,-0.45 1,-1 0,-0.55 -0.45,-1 -1,-1 -0.55,0 -1,0.45 -1,1 m 78.562996,4.75 c -0.696,6.421 -0.762,10.23 -0.347,19.789 0.262,6.041 0.448,6.517 2.436,6.257 1.184,-0.156 2.984,0.445 4,1.334 4.389,3.838 14.345,2.632 12.743,-1.544 -0.414,-1.077 -0.183,-1.565 0.65,-1.377 0.716,0.162 1.725,-1.155 2.267,-2.959 0.538,-1.787 1.323,-3.25 1.745,-3.25 0.422,0 1.071,-1.8 1.443,-4 0.372,-2.2 1.086,-4 1.588,-4 0.502,0 0.912,-0.675 0.912,-1.5 0,-0.825 0.953,-2.453 2.118,-3.618 1.221,-1.221 1.701,-2.386 1.135,-2.75 -0.541,-0.348 -1.299,-1.644 -1.686,-2.882 -0.386,-1.238 -1.121,-2.25 -1.634,-2.25 -0.513,0 -0.933,-0.675 -0.933,-1.5 0,-0.833 -0.889,-1.5 -2,-1.5 -1.1,0 -2,0.45 -2,1 0,0.55 -1.548,1 -3.441,1 -1.893,0 -3.719,-0.45 -4.059,-1 -0.34,-0.55 -3.7,-1 -7.466,-1 h -6.849 l -0.622,5.75 m -77.608996,2.336 c -0.614,1.147 -0.855,2.347 -0.535,2.666 0.32,0.32 0.581,-0.019 0.581,-0.752 0,-0.733 0.279,-1.055 0.619,-0.714 0.612,0.612 3.381,-1.611 3.381,-2.715 0,-1.48 -3.055,-0.336 -4.046,1.515 m 57.045996,25.414 c 0,0.825 -0.477,1.5 -1.059,1.5 -0.582,0 -0.751,0.498 -0.375,1.107 0.489,0.791 0.898,0.76 1.434,-0.107 0.518,-0.838 0.955,-0.881 1.414,-0.14 0.376,0.61 1.945,0.818 3.625,0.482 1.92,-0.384 2.961,-0.184 2.961,0.568 0,0.853 0.533,0.875 2.013,0.083 1.625,-0.869 1.811,-1.454 0.965,-3.035 -1.355,-2.53 -10.978,-2.932 -10.978,-0.458 m -8,2.559 c 0,0.582 0.45,0.781 1,0.441 0.55,-0.34 1,-0.816 1,-1.059 0,-0.243 -0.45,-0.441 -1,-0.441 -0.55,0 -1,0.477 -1,1.059 m 40,10.441 c 0,0.825 0.436,1.5 0.969,1.5 0.532,0 0.709,-0.675 0.393,-1.5 -0.317,-0.825 -0.753,-1.5 -0.969,-1.5 -0.216,0 -0.393,0.675 -0.393,1.5 m -25.5,1.5 c -0.34,0.55 -0.168,1 0.382,1 0.55,0 1.278,-0.45 1.618,-1 0.34,-0.55 0.168,-1 -0.382,-1 -0.55,0 -1.278,0.45 -1.618,1 m -7.284,15.845 c -1.849,1.173 -0.442,3.987 2.842,5.685 3.532,1.826 5.571,1.084 6.431,-2.342 0.368,-1.468 1.196,-3.003 1.84,-3.413 0.644,-0.409 -1.304,-0.744 -4.329,-0.744 -3.025,0 -6.078,0.366 -6.784,0.814 m 6.284,1.155 c 0.34,0.55 1.041,1 1.559,1 0.518,0 0.941,-0.45 0.941,-1 0,-0.55 -0.702,-1 -1.559,-1 -0.857,0 -1.281,0.45 -0.941,1"
     fill-rule="evenodd"
     id="path2" />
  <path
     fill="#524f51"
     stroke="#524f51"
     d="m 122.69534,2.0258867 c 0.34,0.55 1.293,1 2.118,1 0.825,0 1.222,-0.45 0.882,-1 -0.34,-0.55 -1.293,-1 -2.118,-1 -0.825,0 -1.222,0.45 -0.882,1 m 5.333,0.977 c -0.445,1.303 -7.833,2.207 -7.833,0.958 0,-1.228 -5.149,-0.091 -6.5,1.435 -0.55,0.621 -2.8,1.228 -5,1.348 -3.069,0.168 -3.534,0.009 -2,-0.679 1.661,-0.746 1.407,-0.908 -1.5,-0.953 -2.757,-0.044 -3.181,0.174 -2,1.024 1.248,0.897 1.193,0.979 -0.329,0.485 -3.465996,-1.124 -6.661996,0.413 -6.786996,3.263 -0.074,1.6940003 -0.28,2.0140003 -0.573,0.8920003 -0.541,-2.0690003 -0.754,-2.0880003 -5.356,-0.484 -4.41,1.537 -8.941,4.462 -11.106,7.169 -0.907,1.136 -3.521,4.09 -5.808,6.565 -5.779,6.255 -16.293,28.168 -18.472,38.5 -0.928,4.4 -2.076,9.8 -2.551,12 -0.807,3.741 -1.154,7.818 -1.278,15 -0.143,8.293 9.202,37.808003 10.068,31.802003 0.175,-1.21 -0.144,-3.062 -0.709,-4.117 -0.564,-1.055 -1.747,-5.406 -2.627,-9.669 -0.881,-4.262 -2.088,-8.530003 -2.683,-9.482003 -1.39,-2.226 -0.192,-7.381 1.49,-6.415 0.672,0.386 0.899,0.345 0.506,-0.09 -1.042,-1.155 1.03,-4.529 2.782,-4.529 1.067,0 1.433,0.935 1.276,3.268 -0.122,1.798 0.539,4.792 1.468,6.654 0.929,1.862 1.689,3.991003 1.689,4.732003 0,0.74 0.36,1.346 0.799,1.346 1.114,0 3.201,6.087 3.201,9.335 0,1.48 0.417,3.474 0.927,4.429 0.51,0.955 1.279,2.636 1.71,3.736 0.626,1.601 0.853,1.238 1.137,-1.82 0.195,-2.101 -0.083,-4.351 -0.618,-5 -1.518,-1.84 -1.814,-9.961 -0.381,-10.438 0.674,-0.225 1.225,-1.28 1.225,-2.345 0,-3.815003 4.787,-9.897003 7.79,-9.897003 1.521,0 3.673,-0.636 4.784,-1.414 1.11,-0.778 3.347,-1.61 4.972,-1.85 1.813,-0.268 0.876,-0.494 -2.425,-0.586 l -5.378,-0.15 0.715,-6.75 c 0.393,-3.713 0.788,-7.677 0.878,-8.809 0.17,-2.14 4.917,-8.441 6.359,-8.441 0.453,0 1.357,-0.853 2.008,-1.896 0.651,-1.042 3.234,-2.678 5.74,-3.635 2.505996,-0.958 4.556996,-2.087 4.556996,-2.511 0,-0.815 9.453,-2.548 12,-2.2 0.825,0.113 2.512,0.312 3.75,0.442 1.238,0.13 2.25,0.588 2.25,1.018 0,0.43 1.575,0.782 3.5,0.782 1.925,0 3.5,-0.342 3.5,-0.759 0,-2.223 4.195,-3.343 6.605,-1.764 1.769,1.159 2.913,1.321 4.167,0.591 1.463,-0.853 1.307,-1.012 -1.022,-1.038 -2.275,-0.025 -2.75,-0.472 -2.75,-2.586 0,-3.766 4.6,-2.895 9.569,1.814 2.162,2.048 4.943,3.729 6.181,3.733 1.329,0.005 2.25,0.623 2.25,1.509 0,0.825 0.563,1.515 1.25,1.533 1.576,0.042 5.845,3.549 5.655,4.646 -0.345,1.997 0.203,2.698 1.056,1.35 0.512,-0.809 1.244,-1.157 1.627,-0.774 0.383,0.383 0.171,1.331 -0.472,2.106 -0.944,1.137 -0.67,1.534 1.423,2.059 2.676,0.672 5.461,5.541 5.461,9.548 0,1.14 0.659,2.032 1.5,2.032 0.83,0 1.5,0.887 1.5,1.985 0,1.092 1.317,4.58 2.926,7.75 1.609,3.171 3.21,7.892 3.558,10.492 0.769,5.752003 2.211,6.868003 4.778,3.698003 1.464,-1.808 1.808,-3.364003 1.407,-6.356003 -0.316,-2.355 0.046,-5.345 0.893,-7.372 0.784,-1.875 1.133,-3.881 0.777,-4.458 -0.368,-0.594 -0.17,-0.753 0.456,-0.366 1.764,1.09 3.602,-3.189 2.132,-4.961 -0.667,-0.803 -0.898,-1.774 -0.515,-2.157 0.383,-0.383 1.115,-0.035 1.627,0.774 1.349,2.133 1.204,-0.402 -0.2,-3.482 -0.638,-1.401 -1.538,-2.547 -2,-2.547 -0.461,0 -0.763,-0.338 -0.671,-0.75 0.426,-1.896 -3.172,-19.336 -4.486,-21.75 -0.599,-1.1 -1.115,-2.45 -1.147,-3 -0.381,-6.624 -8.839,-23.243 -10.479,-20.59 -0.567,0.916 -1.009,0.975 -1.49,0.197 -0.376,-0.609 -0.17,-1.107 0.458,-1.107 0.629,0 0.981,-0.484 0.784,-1.075 -0.197,-0.591 -0.667,-1.059 -1.044,-1.038 -0.377,0.02 -2.391,-1.677 -4.475,-3.77 -4,-4.018 -15.394,-11.1170003 -17.843,-11.1170003 -0.795,0 -1.446,-0.477 -1.446,-1.059 0,-0.582 -0.399,-0.812 -0.887,-0.511 -0.487,0.301 -1.492,-0.182 -2.232,-1.074 -1.215,-1.464 -1.399,-1.397 -1.891,0.687 -0.627,2.654 -2.99,3.896 -2.99,1.572 0,-1.053 -0.562,-1.348 -1.75,-0.918 -1.147,0.417 -0.889,-0.129 0.75,-1.584 l 2.5,-2.219 -2.5,0.676 c -1.375,0.371 -3.043,1.108 -3.706,1.638 -1.596,1.275 -3.356,0.117 -2.643,-1.74 0.309,-0.807 0.102,-1.468 -0.461,-1.468 -0.563,0 -1.173,0.439 -1.357,0.977 m 15.246,7.6060003 c 0.048,1.165 0.285,1.402 0.604,0.605 0.289,-0.722 0.253,-1.5850003 -0.079,-1.9170003 -0.332,-0.332 -0.568,0.258 -0.525,1.3120003 m -6.412,1.084 c -1.218,1.218 -0.689,3.333 0.833,3.333 0.833,0 1.5,-0.889 1.5,-2 0,-1.992 -1.066,-2.601 -2.333,-1.333 m 16.101,2.501 c 0.582,0.582 1.647,0.86 2.369,0.62 0.749,-0.25 0.295,-0.703 -1.057,-1.057 -1.663,-0.435 -2.054,-0.305 -1.312,0.437 m -16.388,8.284 c -0.306,0.799 -0.266,1.924 0.09,2.5 1.165,1.885 2.53,1.101 2.53,-1.452 0,-2.711 -1.718,-3.398 -2.62,-1.048 m -0.773,8.13 c -0.96,2.502 -0.721,3.418 0.893,3.418 0.933,0 1.5,-0.944 1.5,-2.5 0,-2.793 -1.459,-3.353 -2.393,-0.918 m -5.528,5.001 c 0.048,1.165 0.285,1.402 0.604,0.605 0.289,-0.722 0.253,-1.585 -0.079,-1.917 -0.332,-0.332 -0.568,0.258 -0.525,1.312 m 4.582,1.858 c -1.011,2.635 -0.806,3.999 0.921,6.118 1.497,1.838 1.549,1.841 0.982,0.064 -0.329,-1.032 -0.148,-2.419 0.402,-3.082 0.68,-0.819 0.577,-1.784 -0.322,-3.013 -1.238,-1.693 -1.365,-1.698 -1.983,-0.087 m 51.839,43.559 c 0.34,0.55 0.816,1 1.059,1 0.243,0 0.441,-0.45 0.441,-1 0,-0.55 -0.477,-1 -1.059,-1 -0.582,0 -0.781,0.45 -0.441,1 m -22,8 c -1.772,0.762 -1.687,0.867 0.75,0.93 1.512,0.038 2.75,-0.38 2.75,-0.93 0,-1.174 -0.769,-1.174 -3.5,0 m -63,2.391 c 8.862,3.386 13.153,4.119 10.894,1.86 -2.366,-2.366 -8.098,-4.228 -12.893996,-4.187 l -4,0.034 5.999996,2.293 m 44.5,-0.967 c -6.034,1.67 -11.282,4.476 -8.5,4.546 2.693,0.068 14.5,-4.13 14.5,-5.155 0,-0.993 -0.333,-0.959 -6,0.609 m -56.999996,5.583 c 1.32,0.847 0.766,1.397 -1.154,1.143 -1.462,-0.193 -3.155,2.941003 -2.137,3.959003 0.699,0.699 2.076,0.384 4.337,-0.991 3.164,-1.924003 5.602,-1.975003 4.438,-0.093 -0.301,0.488 0.561,1.614 1.917,2.502 2.881,1.888 6.055996,0.758 7.098996,-2.526 0.349,-1.101003 1.144,-2.001003 1.767,-2.001003 0.824,0 0.814,-0.319 -0.035,-1.168 -0.644,-0.644 -4.886,-1.308 -9.449996,-1.478 -5.575,-0.209 -7.792,0.005 -6.782,0.653 m 18.812996,-0.324 c 0.721,0.289 1.584,0.253 1.916,-0.079 0.332,-0.332 -0.258,-0.568 -1.312,-0.525 -1.165,0.048 -1.402,0.285 -0.604,0.604 m 41.687,0.627 c -1.65,0.53 -3.578,1.118 -4.285,1.309 -1.963,0.528 1.189,5.992003 3.86,6.690003 2.635,0.689 5.912,-1.18 5.221,-2.979 -0.704,-1.836003 2.417,-2.813003 4.217,-1.319 2.432,2.018 1.731,3.485 -2.763,5.785 -2.338,1.197 -3.532,2.182 -2.654,2.19 2.185,0.019 7.904,-2.918 7.904,-4.059 0,-0.51 0.9,-0.927 2,-0.927 4.66,0 0.302,-4.527003 -6.155,-6.396003 -3.011,-0.871 -5.266,-0.961 -7.345,-0.294 m -40.5,2.19 c -1.351,1.628003 -1.028,1.832003 1.418,0.893 0.87,-0.334 1.582,-1.009 1.582,-1.5 0,-1.383 -1.62,-1.055 -3,0.607 m 30,1.500003 c 0,0.55 0.648,1 1.441,1 0.793,0 1.719,-0.45 2.059,-1 0.34,-0.550003 -0.309,-1.000003 -1.441,-1.000003 -1.132,0 -2.059,0.45 -2.059,1.000003 m -50.999996,3.331 c 0,1.873 4.241,3.926 7.101,3.437 l 2.399,-0.411 -2.653,-1.117 c -1.459,-0.614 -2.948,-1.594 -3.309,-2.178 -0.935,-1.514 -3.538,-1.316 -3.538,0.269 m 28.157996,5.669 c 0,1.375 0.227,1.938 0.504,1.25 0.278,-0.687 0.278,-1.812 0,-2.5 -0.277,-0.687 -0.504,-0.125 -0.504,1.25 m -44.157996,16.809 c 0,0.995 0.661,2.682 1.468,3.75 1.629,2.154 2.001,0.791 0.902,-3.309 -0.721,-2.691 -2.37,-2.998 -2.37,-0.441 m -3,3.191 c 0,0.55 0.675,1 1.5,1 0.825,0 1.5,-0.45 1.5,-1 0,-0.55 -0.675,-1 -1.5,-1 -0.825,0 -1.5,0.45 -1.5,1 m 0.049,10.835 c -1.127,3.785 -2.049,7.678 -2.049,8.652 0,1.624 -1.65,3.833 -10.005,13.392 -1.624,1.858 -3.24,4.907 -3.59,6.777 -0.58,3.092 -3.413,6.002 -4.644,4.771 -1.205,-1.204 -5.69,2.103 -7.699,5.676 -1.204,2.143 -2.836,3.897 -3.626,3.897 -0.79,0 -1.436,0.675 -1.436,1.5 0,0.825 -0.697,1.5 -1.55,1.5 -2.317,0 -8.144,3.257 -6.7,3.745 1.764,0.595 1.56,3.255 -0.25,3.255 -0.825,0 -1.5,-0.661 -1.5,-1.469 0,-0.916 -0.584,-1.244 -1.552,-0.873 -1.018,0.391 -1.415,1.497 -1.155,3.219 0.219,1.443 0.209,2.061 -0.021,1.373 -0.23,-0.687 -1.006,-1.25 -1.723,-1.25 -1.715,0 -3.88,2.655 -3.141,3.851 0.319,0.517 -0.115,1.206 -0.966,1.533 -0.999,0.383 -1.296,0.189 -0.839,-0.55 0.443,-0.718 0.262,-0.868 -0.489,-0.404 -0.658,0.406 -0.918,1.611 -0.579,2.679 0.405,1.277 0.183,1.847 -0.648,1.666 -0.695,-0.151 -2.083,1.413 -3.083,3.475 -1.066,2.196 -2.5420001,3.752 -3.5620001,3.755 -0.958,0.003 -3.092,1.164 -4.742,2.58 -2.241,1.924 -2.494,2.428 -1,1.993 1.862,-0.543 1.879,-0.489 0.25,0.78 -1.863,1.45 -2.46999998,7.642 -0.75,7.642 0.55,0 0.993,0.788 0.985,1.75 -0.013,1.496 -0.157,1.532 -0.985,0.25 -0.707,-1.094 -0.937,-0.418 -0.849,2.5 0.069,2.273 0.309,3.028 0.555,1.748 0.384,-1.996 0.603,-2.082 1.927,-0.758 1.288,1.288 1.3,1.767 0.09,3.495 -0.771,1.101 -1.7,1.705 -2.063,1.342 -0.363,-0.363 -0.66,0.09 -0.66,1.006 0,1.186 0.867,1.667 3,1.667 1.65,0 3,0.423 3,0.941 0,1.599 -2.02,2.287 -3.386,1.154 -0.714,-0.593 -1.594,-0.782 -1.956,-0.42 -1.10499998,1.105 -0.774,15.515 0.34,14.826 1.015,-0.627 0.876,4.21 -0.174,6.044 -0.3,0.525 -0.496,3.88 -0.435,7.455 0.106,6.222 0.218,6.502 2.611,6.553 2.589,0.055 3.526,1.753 1.158,2.1 -2.213,0.325 -2.579,1.249 -1.594,4.025 0.89,2.51 12.4070001,8.018 13.8170001,6.608 0.267,-0.267 1.024,-0.153 1.683,0.253 1.884,1.165 9.936,1.435 9.936,0.334 0,-0.558 0.547,-0.637 1.25,-0.182 1.994,1.291 6.79,1.414 73.749996,1.889 70.342,0.499 67.142,0.777 70.354,-6.107 4.408,-9.449 7.078,-9.749 6.431,-0.723 l -0.483,6.75 13.495,-0.249 c 7.422,-0.137 14.047,-0.707 14.722,-1.267 0.675,-0.56 1.997,-0.723 2.938,-0.362 1.359,0.521 1.437,0.831 0.377,1.508 -0.761,0.486 1.46,0.591 5.166,0.246 7.122,-0.665 13.415,-3.998 15.282,-8.096 0.572,-1.254 1.417,-2.28 1.879,-2.28 0.461,0 0.839,-1.027 0.839,-2.283 0,-2.54 -4.005,-3.112 -6.228,-0.889 -0.644,0.644 -2.405,1.172 -3.913,1.172 -1.508,0 -3.019,0.45 -3.359,1 -0.942,1.524 -2.5,1.192 -2.5,-0.531 0,-1.534 1.724,-2.582 4.838,-2.943 5.003,-0.579 10.277,-1.903 10.773,-2.705 0.311,-0.504 0.699,-9.445 0.861,-19.869 0.315,-20.253 0.457,-19.651 -4.472,-18.987 -1.204,0.162 -1.253,-0.051 -0.25,-1.081 1.682,-1.727 1.589,-4.884 -0.143,-4.884 -1.198,0 -3.16,-2.887 -2.381,-3.502 1.179,-0.932 5.774,-1.343 5.774,-0.517 0,0.56 -0.388,1.019 -0.861,1.019 -0.474,0 -0.639,1.166 -0.366,2.592 0.328,1.714 0.754,2.173 1.26,1.355 0.545,-0.883 0.908,-0.694 1.263,0.658 0.275,1.042 0.476,-0.427 0.446,-3.265 -0.054,-5.256 -1.83,-7.34 -6.258,-7.34 -0.852,0 -1.191,-0.6 -0.846,-1.5 0.636,-1.657 -1.31,-1.994 -3.5,-0.607 -0.835,0.53 -2.86,0.234 -5.24,-0.765 -4.067,-1.708 -5.071,-3.128 -2.209,-3.128 1.491,0 1.462,-0.208 -0.25,-1.781 -1.716,-1.576 -12.667,-7.219 -14.01,-7.219 -1.715,0 -5.439,-5.26 -6.882,-9.722 -1.679,-5.189 -5.334,-9.076 -11.547,-12.277 -1.375,-0.708 -3.85,-2.558 -5.5,-4.112 -6.347,-5.975 -18.5,-10.545 -18.5,-6.956 0,0.873 -7.299,8.337 -16.893,17.273 -11.782,10.974 -29.757,10.833 -37.942,-0.297 -1.741,-2.367 -3.165,-3.764 -3.165,-3.106 0,0.658 -0.45,1.197 -1,1.197 -0.55,0 -1,-0.852 -1,-1.893 0,-1.041 -0.675,-2.152 -1.499996,-2.469 -0.825,-0.316 -1.5,-1.312 -1.5,-2.214 0,-1.069 -0.539,-1.431 -1.552,-1.042 -0.883,0.338 -1.291,0.172 -0.946,-0.385 0.333,-0.539 -0.509,-2.095 -1.871,-3.456 -1.362,-1.362 -2.77,-3.403 -3.129,-4.536 -0.36,-1.132 -1.745,-2.773 -3.078,-3.647 -1.333,-0.873 -2.424,-2.116 -2.424,-2.761 0,-0.645 -1.332,-2.731 -2.959,-4.635 -1.638,-1.915 -2.978,-4.664 -3,-6.153 -0.023,-1.48 -0.491,-2.969 -1.041,-3.309 -0.55,-0.34 -1.067,-3.179 -1.15,-6.309 -0.082,-3.13 -0.338,-4.446 -0.568,-2.924 -0.423,2.802 -2.282,2.886 -2.282,0.103 0,-0.832 -0.653,-2.166 -1.451,-2.964 -1.268,-1.268 -1.709,-0.583 -3.5,5.429 m 47.450996,-2.835 c -0.34,0.55 0.309,1 1.441,1 1.132,0 2.059,-0.45 2.059,-1 0,-0.55 -0.648,-1 -1.441,-1 -0.793,0 -1.719,0.45 -2.059,1 m 21.5,18.064 c -2.194,1.713 -2.901,1.8 -5.781,0.713 -2.721,-1.028 -4.024,-0.972 -7.639,0.328 -3.559,1.28 -4.791,1.34 -6.721,0.329 -2.243,-1.175 -6.653,-1.758 -11.609,-1.535 -2.491,0.112 -3.334,4.101 -0.867,4.101 0.761,0 1.619,0.9 1.907,2 0.584,2.232 4.71,2.83 4.71,0.682 0,-0.924 1.196,-1.224 4,-1.002 2.206,0.174 4,-0.131 4,-0.682 0,-0.549 0.9,-0.998 2,-0.998 1.1,0 2,-0.477 2,-1.06 0,-0.614 1.579,-0.93 3.75,-0.75 2.927,0.242 3.686,0.694 3.456,2.06 -0.216,1.285 0.382,1.75 2.25,1.75 1.399,0 2.544,-0.45 2.544,-1 0,-2.113 3.865,-0.977 4.252,1.25 0.38,2.188 0.422,2.176 1.514,-0.419 0.618,-1.468 1.893,-3.1 2.833,-3.626 2.339,-1.309 1.064,-4.22 -1.818,-4.149 -1.254,0.03 -3.406,0.934 -4.781,2.008 m -17,5.829 c 0,1.014 3.046,2.395 3.743,1.697 0.252,-0.251 0.161,-0.937 -0.202,-1.523 -0.798,-1.291 -3.541,-1.426 -3.541,-0.174 m -8.361,3.801 c -1.126,1.126 -0.685,2.306 0.861,2.306 0.825,0 1.5,-0.423 1.5,-0.941 0,-1.261 -1.562,-2.164 -2.361,-1.365 m 22.361,0.806 c -0.718,0.865 -0.815,1.5 -0.229,1.5 0.558,0 1.274,-0.675 1.591,-1.5 0.316,-0.825 0.419,-1.5 0.229,-1.5 -0.19,0 -0.906,0.675 -1.591,1.5 m -17.5,2.5 c 0.34,0.55 1.041,1 1.559,1 0.518,0 0.941,-0.45 0.941,-1 0,-0.55 -0.702,-1 -1.559,-1 -0.857,0 -1.281,0.45 -0.941,1 m 4.75,2.716 c 1.512,0.229 3.988,0.229 5.5,0 1.512,-0.229 0.275,-0.416 -2.75,-0.416 -3.025,0 -4.262,0.187 -2.75,0.416 m -37.764996,3.332 c -0.358,1.126 -0.176,2.62 0.404,3.318 0.58,0.699 1.546,3.715 2.146,6.702 1.563,7.77 7.033,21.374 9.255,23.016 1.148,0.848 0.167,11.861 -1.394,15.666 -1.235,3.007 -3.896,4.544 -3.896,2.25 0,-0.55 -0.45,-1 -1,-1 -0.55,0 -1,1.364 -1,3.032 0,3.641 2.625,10.318 3.777,9.606 1.337,-0.826 3.907,1.236 2.632,2.112 -2.809,1.93 2.114,16.231 5.590996,16.242 1.554,0.005 6.081,-6.433 7.907,-11.242 0.574,-1.512 1.708,-2.75 2.521,-2.75 4.96,0 7.611,-3.249 9.384,-11.5 1.134,-5.282 0.598,-6.5 -2.864,-6.5 -2.239,0 -2.747,-0.36 -2.269,-1.607 0.461,-1.2 1.465,-1.469 3.969,-1.063 1.844,0.299 3.352,0.229 3.352,-0.157 0,-1.092 7.731,-4.173 10.472,-4.173 1.434,0 2.903,-0.833 3.528,-2 0.589,-1.1 1.699,-2 2.468,-2 0.768,0 1.683,-0.9 2.032,-2 0.349,-1.1 0.959,-2 1.355,-2 0.396,0 0.828,-1.422 0.96,-3.16 0.133,-1.738 1.016,-3.749 1.963,-4.469 1.626,-1.234 1.624,-1.309 -0.028,-1.339 -2.047,-0.037 -2.129,-0.647 -0.652,-4.883 0.604,-1.732 1.676,-3.149 2.383,-3.149 0.707,0 1.532,-0.941 1.833,-2.092 0.497,-1.901 0.394,-1.954 -1.134,-0.578 -0.924,0.833 -2.918,1.823 -4.43,2.2 -1.809,0.452 -2.75,1.345 -2.75,2.611 0,2.402 -3.726,3.895 -6.815,2.731 -1.273,-0.479 -6.098,-0.872 -10.72,-0.872 -11.611,0 -16.74,-2.461 -27.335996,-13.113 -4.471,-4.495 -8.129,-8.559 -8.129,-9.03 0,-1.758 -2.89,-0.779 -3.515,1.191 m -49.986,13.954 c -0.386,0.624 -1.316,0.898 -2.068,0.61 -0.752,-0.289 -1.604,-0.141 -1.893,0.327 -0.29,0.468 0.052,1.074 0.76,1.345 1.442,0.554 5.378,-1.942 4.479,-2.84 -0.317,-0.317 -0.892,-0.066 -1.278,0.558 m -14.499,11.998 c 0,0.55 0.648,1 1.441,1 0.793,0 1.719,-0.45 2.059,-1 0.34,-0.55 -0.309,-1 -1.441,-1 -1.132,0 -2.059,0.45 -2.059,1 m 113.749996,0.572 c -3.238,1.757 -3.504,2.997 -0.796,3.706 1.316,0.344 2.46,-0.26 3.5,-1.848 2.549,-3.891 1.884,-4.347 -2.704,-1.858 m -115.635996,3.357 c -0.859,0.532 -0.962,1.047 -0.29,1.462 0.571,0.353 1.339,0.154 1.707,-0.441 0.918,-1.486 0.188,-2.012 -1.417,-1.021 m 185.635996,0.733 c 0.688,0.278 1.813,0.278 2.5,0 0.688,-0.277 0.125,-0.504 -1.25,-0.504 -1.375,0 -1.937,0.227 -1.25,0.504 m -192.749996,5.338 c 0,0.55 0.675,1 1.5,1 0.825,0 1.5,-0.45 1.5,-1 0,-0.55 -0.675,-1 -1.5,-1 -0.825,0 -1.5,0.45 -1.5,1 m 124.182996,1.217 c -1.385,1.385 -1.575,3.783 -0.3,3.783 0.829,0 2.363,-4.087 1.761,-4.69 -0.153,-0.152 -0.81,0.256 -1.461,0.907 m 86.567,0.445 c 0.688,0.278 1.813,0.278 2.5,0 0.688,-0.277 0.125,-0.504 -1.25,-0.504 -1.375,0 -1.937,0.227 -1.25,0.504 m -215.3529961,1.838 c -1.459,1.105 -1.551,1.44 -0.397,1.453 2.136,0.023 4.4100001,-1.581 3.254,-2.296 -0.528,-0.326 -1.813,0.053 -2.857,0.843 m -2.365,7.838 c 0.027,4.399 0.22,4.914 1.307,3.484 0.875,-1.15 1.73,-1.391 2.719,-0.765 1.7680001,1.119 2.9420001,1.193 2.9420001,0.187 0,-0.416 -1.3500001,-1.353 -3.0000001,-2.084 -3.223,-1.426 -4,-3.16 -1.417,-3.16 2.081,0 1.304,-2.253 -0.887,-2.574 -1.411,-0.207 -1.691,0.618 -1.664,4.912 m 219.9679961,-2.911 c 0,0.927 0.855,1.573 2.083,1.573 2.437,0 2.093,-2.337 -0.416,-2.823 -0.987,-0.192 -1.667,0.318 -1.667,1.25 m -127.999996,4.014 c 0,0.793 0.408,1.693 0.907,2.001 0.498,0.309 0.671,-0.34 0.383,-1.441 -0.611,-2.335 -1.29,-2.63 -1.29,-0.56 m 2,6.5 c 0,1.132 0.45,2.059 1,2.059 0.55,0 0.999996,-0.648 0.999996,-1.441 0,-0.793 -0.449996,-1.719 -0.999996,-2.059 -0.55,-0.34 -1,0.309 -1,1.441 m -91.0000001,2.059 c -0.901,0.582 -1.025,0.975 -0.309,0.985 0.655,0.008 1.469,-0.435 1.809,-0.985 0.767,-1.242 0.421,-1.242 -1.5,0 m 92.6510001,5.466 c -0.762,1.987 -0.301,2.943 1.151996,2.388 0.511,-0.195 0.618,-1.221 0.238,-2.281 -0.657,-1.831 -0.726,-1.836 -1.389996,-0.107 m -97.0150001,12.028 c 0.316,0.822 0.976,1.246 1.469,0.941 1.412,-0.872 1.044,-2.435 -0.574,-2.435 -0.892,0 -1.243,0.587 -0.895,1.494 m 15.3640001,15.47 c 0,0.529 2.025,0.922 4.5,0.873 2.475,-0.05 4.5,-0.484 4.5,-0.964 0,-0.48 -2.025,-0.873 -4.5,-0.873 -2.475,0 -4.5,0.434 -4.5,0.964 m 10.543,0.966 c -0.286,0.463 0.374,1.077 1.468,1.363 1.094,0.286 1.989,0.16 1.989,-0.28 0,-1.175 -2.848,-2.067 -3.457,-1.083 m -14.043,1.07 c -0.34,0.55 0.11,1 1,1 0.89,0 1.34,-0.45 1,-1 -0.34,-0.55 -0.79,-1 -1,-1 -0.21,0 -0.66,0.45 -1,1 m 205.499996,3 c -1.219,0.788 -1.09,0.972 0.691,0.985 1.205,0.008 2.469,-0.435 2.809,-0.985 0.787,-1.273 -1.53,-1.273 -3.5,0 m -188.920996,3.405 c -0.892,1.075 -0.945,1.992 -0.188,3.293 0.984,1.692 1.05,1.695 1.079,0.044 0.025,-1.494 0.325,-1.575 1.985,-0.538 2.408,1.504 3.853,0.301 2.402,-2.002 -1.432,-2.275 -3.76,-2.627 -5.278,-0.797 m 3.671,5.311 c -3.923,0.595 -3.399,1.876 1.25,3.056 3.835,0.974 4,0.917 4,-1.378 0,-1.329 -0.556,-2.327 -1.25,-2.244 -0.687,0.082 -2.487,0.337 -4,0.566 m 173.249996,3.711 c 0,0.927 0.855,1.573 2.083,1.573 2.437,0 2.093,-2.337 -0.416,-2.823 -0.987,-0.192 -1.667,0.318 -1.667,1.25"
     fill-rule="evenodd"
     id="path3" />
  <path
     fill="#282e2d"
     stroke="#282e2d"
     d="m 137.69534,10.025887 c 0.34,0.55 0.816,1 1.059,1 0.243,0 0.441,-0.45 0.441,-1 0,-0.5500003 -0.477,-1.0000003 -1.059,-1.0000003 -0.582,0 -0.781,0.45 -0.441,1.0000003 m -38.749996,15.662 c 0.688,0.278 1.812996,0.278 2.499996,0 0.688,-0.277 0.125,-0.504 -1.25,-0.504 -1.374996,0 -1.936996,0.227 -1.249996,0.504 m 37.249996,1.262 c 0,0.474 0.675,1.121 1.5,1.438 0.825,0.316 1.5,0.187 1.5,-0.286 0,-0.474 -0.675,-1.121 -1.5,-1.438 -0.825,-0.316 -1.5,-0.187 -1.5,0.286 m -69.999996,8.635 c 0,0.857 0.45,1.281 1,0.941 0.55,-0.34 1,-1.041 1,-1.559 0,-0.518 -0.45,-0.941 -1,-0.941 -0.55,0 -1,0.702 -1,1.559 m 35.347996,1.91 c -1.078,0.755 -2.610996,1.338 -3.403996,1.295 -6.198,-0.338 -6.944,0.105 -6.944,4.123 0,3.522 0.271,3.926 2.896,4.311 2.022,0.297 2.753,0.05 2.42,-0.818 -0.263,-0.683 0.541,-2.62 1.785,-4.302 2.123996,-2.873 2.372996,-2.959 4.079996,-1.414 1.632,1.476 1.819,1.483 1.819,0.064 0,-0.87 0.787,-1.747 1.75,-1.948 1.553,-0.326 1.514,-0.498 -0.345,-1.526 -1.636,-0.905 -2.526,-0.857 -4.057,0.215 m -21.347996,2.531 c 0,0.55 0.45,1 1,1 0.55,0 1,-0.45 1,-1 0,-0.55 -0.45,-1 -1,-1 -0.55,0 -1,0.45 -1,1 m -18.838,4.543 c -1.396,3.066 -1.427,3.457 -0.27,3.457 0.916,0 2.511,-4.93 1.819,-5.622 -0.212,-0.213 -0.909,0.762 -1.549,2.165 m 12.588,0.206 c -2.646,0.601 -2.096,2.251 0.75,2.251 1.375,0 2.5,-0.423 2.5,-0.941 0,-1.303 -1.182,-1.779 -3.25,-1.31 m -10.671,2.834 c 0.048,1.165 0.285,1.402 0.604,0.605 0.289,-0.722 0.253,-1.585 -0.079,-1.917 -0.332,-0.332 -0.568,0.258 -0.525,1.312 m 21.921,1.448 c 0,2.616 2.081,3.372 6.758,2.454 l 3.742,-0.734 -4,-1.801 c -5.273,-2.375 -6.5,-2.36 -6.5,0.081 m -26.574,1.3 c -0.345,0.902 0.109,2.347 1.026,3.264 1.529,1.529 1.597,1.441 0.957,-1.224 -0.885,-3.68 -1.221,-4.025 -1.983,-2.04 m 3.653,3.252 c 0.048,1.165 0.285,1.402 0.604,0.605 0.289,-0.722 0.253,-1.585 -0.079,-1.917 -0.332,-0.332 -0.568,0.258 -0.525,1.312 m 9.741,3.667 c -0.236,1.661 -0.887,2.172 -2.487,1.951 -1.466,-0.202 -2.378,0.365 -2.818,1.75 -0.357,1.127 -1.114,2.049 -1.682,2.049 -0.659,0 -0.906,3.256 -0.682,9.005 0.192,4.953 0.199,8.553 0.016,8 -0.851,-2.566 -2.985,-0.707 -3.329,2.9 -0.284,2.978 0.065,4.178 1.471,5.056 1.408,0.879 1.579,1.469 0.724,2.499 -1.323,1.594 -0.424,5.971 1.565,7.621 0.771,0.64 1.402,2.009003 1.402,3.041003 0,4.853 1.879,1.059 2.908,-5.872003 1.125,-7.581 2.934,-13.25 4.228,-13.25 0.357,0 1.416,-3.131 2.354,-6.959 0.938,-3.827 2.336,-7.482 3.108,-8.122 0.771,-0.64 1.402,-1.746 1.402,-2.458 0,-0.712 0.563,-1.498 1.25,-1.747 1,-0.362 1,-0.876 0,-2.57 -0.687,-1.164 -1.25,-2.798 -1.25,-3.63 0,-2.74 -7.786,-2.039 -8.18,0.736 m 9.18,-1.309 c 0,1.866 2.226,2.262 3.81,0.677 1.491,-1.491 1.405,-1.618 -1.096,-1.618 -1.493,0 -2.714,0.423 -2.714,0.941 m -26,6.059 c 0,0.55 0.675,1 1.5,1 0.825,0 1.5,-0.45 1.5,-1 0,-0.55 -0.675,-1 -1.5,-1 -0.825,0 -1.5,0.45 -1.5,1 m -1,5 c 0,1.867 0.267,2.133 1.2,1.2 0.933,-0.933 0.933,-1.467 0,-2.4 -0.933,-0.933 -1.2,-0.667 -1.2,1.2 m -0.993,6.983 c -0.722,1.744 -0.963,4.439 -0.579,6.486 0.371,1.976 0.178,4.398 -0.441,5.555 -0.683,1.276 -0.821,3.834 -0.365,6.764 l 0.734,4.712 0.849,-3.957 c 0.468,-2.177 0.607,-4.589 0.311,-5.362 -0.386,-1.005 -0.038,-1.213 1.223,-0.733 1.412,0.538 1.513,0.421 0.511,-0.589 -1.485,-1.496 -1.687,-7.859 -0.25,-7.859 0.55,0 1,-0.477 1,-1.059 0,-0.582 -0.45,-0.781 -1,-0.441 -0.567,0.351 -1,-0.49 -1,-1.941 0,-1.407 0.45,-2.559 1,-2.559 0.55,0 1,-0.45 1,-1 0,-2.079 -1.806,-0.883 -2.993,1.983 m 122.071996,6.6 c 0.048,1.165 0.285,1.402 0.604,0.605 0.289,-0.722 0.253,-1.585 -0.079,-1.917 -0.332,-0.332 -0.568,0.258 -0.525,1.312 m -119.883996,1.917 c 0.02,1.65 0.244,2.204 0.498,1.231 0.254,-0.973 0.237,-2.323 -0.037,-3 -0.274,-0.677 -0.481,0.119 -0.461,1.769 m 39.367,14.399 c -0.744,1.205 -0.745,1.205 4.728,1.546 2.083996,0.13 4.022996,-0.142 4.308996,-0.605 0.285,-0.462 -0.126,-0.84 -0.915,-0.84 -0.789,0 -2.786,-0.27 -4.437996,-0.601 -1.749,-0.35 -3.287,-0.141 -3.684,0.5 m -41.096,4.601003 c 0.372,1.65 0.919,4.463 1.215,6.25 0.296,1.787 0.944,3.25 1.44,3.25 1.302,0 -0.149,-8.134 -1.874,-10.5 -1.369,-1.880003 -1.416,-1.820003 -0.781,1 m 92.533996,-1.934003 c 0,1.796003 2.337,4.434003 3.928,4.434003 1.795,0 3.663,-2.742 2.596,-3.81 -0.288,-0.288003 -0.524,-0.051 -0.524,0.527 0,0.577 -0.9,1.285 -2,1.573 -1.483,0.388 -2,0.03 -2,-1.384 0,-1.048003 -0.45,-1.906003 -1,-1.906003 -0.55,0 -1,0.255 -1,0.566 m -49.457996,1.841003 c 2.056,1.504 4.667996,1.463 5.182996,-0.081 0.183,-0.55 -1.326,-1.062 -3.353996,-1.138 -3.337,-0.126 -3.51,-0.01 -1.829,1.219 m -40.542,11.475 c 0,0.55 0.45,1.278 1,1.618 0.55,0.34 1,0.168 1,-0.382 0,-0.55 -0.45,-1.278 -1,-1.618 -0.55,-0.34 -1,-0.168 -1,0.382 m 14.621,24.118 c -0.295,0.825 -1.264,4.425 -2.154,8 -1.123,4.508 -2.583,7.505 -4.766,9.778 -2.653,2.762 -2.964,3.571 -1.983,5.142 1.418,2.27 0.493,3.5 -1.431,1.904 -1.632,-1.355 -5.018,1.418 -5.765,4.722 a 87.372,87.372 0 0 1 -1.099,4.204 c -0.403,1.382 -0.225,2.25 0.46,2.25 0.615,0 1.117,0.459 1.117,1.019 0,0.588 -1.059,0.753 -2.507,0.39 -3.466,-0.87 -9.493,0.401 -9.493,2.001 0,0.726 -0.903,2.468 -2.006,3.87 -1.471,1.871 -1.671,2.689 -0.75,3.072 0.918,0.382 0.785,0.905 -0.494,1.945 -1.909,1.553 -2.344,3.703 -0.75,3.703 0.55,0 1,0.45 1,1 0,0.55 -0.675,1 -1.5,1 -1.021,0 -1.508,1.039 -1.524,3.25 -0.014,1.788 -0.49,5.269 -1.059,7.736 -1.037,4.502 0.657,21.014 2.156,21.014 0.36,0 1.219,2.813 1.91,6.25 0.691,3.438 1.873,8.163 2.625,10.502 0.753,2.338 1.379,5.263 1.39,6.5 0.039,4.2 1.758,18.227 2.849,23.248 0.597,2.75 1.644,7.813 2.326,11.25 0.755,3.807 1.745,6.25 2.533,6.25 0.712,0 1.294,-0.45 1.294,-1 0,-0.55 0.675,-1 1.5,-1 0.825,0 1.5,0.678 1.5,1.507 0,1.324 6.663,1.501 55.128996,1.459 l 55.13,-0.048 3.37,-3.179 c 1.854,-1.748 3.371,-3.755 3.371,-4.459 0,-0.704 0.45,-1.28 1,-1.28 0.55,0 1,-0.437 1,-0.971 0,-1.366 6.213,-10.029 7.193,-10.029 0.444,0 0.807,-0.932 0.807,-2.071 0,-1.14 0.674,-2.746 1.498,-3.57 0.825,-0.825 1.794,-2.705 2.154,-4.179 0.361,-1.474 0.924,-2.905 1.252,-3.18 1.139,-0.956 3.096,-4.981 3.096,-6.37 0,-0.768 0.9,-1.632 2,-1.92 1.532,-0.4 2,-1.364 2,-4.116 0,-1.977 0.387,-3.594 0.859,-3.594 0.473,0 1.89,-3.038 3.149,-6.75 2.352,-6.936 4.064,-25.246 2.361,-25.254 -0.478,-0.003 -0.953,-1.623 -1.055,-3.601 -0.102,-1.978 -0.81,-4.338 -1.572,-5.245 -0.763,-0.908 -1.998,-3.675 -2.744,-6.15 -1.428,-4.733 -2.951,-7.38 -3.772,-6.559 -0.269,0.269 -1.391,0.006 -2.493,-0.584 -1.443,-0.772 -1.66,-1.284 -0.776,-1.831 0.805,-0.497 -0.268,-1.486 -3.115,-2.871 -2.388,-1.161 -5.599,-3.697 -7.135,-5.634 -1.803,-2.273 -3.642,-3.521 -5.191,-3.521 -1.319,0 -2.676,-0.45 -3.016,-1 -0.34,-0.55 -1.041,-1 -1.559,-1 -0.518,0 -0.941,0.45 -0.941,1 0,0.55 0.675,1 1.5,1 0.825,0 1.5,0.45 1.5,1 0,1.25 -3.013,1.277 -4.96,0.046 -1.257,-0.795 -1.217,-1.193 0.29,-2.858 1.673,-1.849 1.662,-1.957 -0.244,-2.455 -1.323,-0.346 -2.476,0.2 -3.425,1.623 -0.787,1.179 -2.333,3.169 -3.436,4.421 -1.103,1.252 -2.324,4.402 -2.714,7 -0.389,2.598 -1.563,6.495 -2.609,8.661 -1.046,2.166 -1.902,4.528 -1.902,5.25 0,0.722 -0.45,1.312 -1,1.312 -0.55,0 -1,0.694 -1,1.542 0,0.848 -0.9,2.508 -2,3.688 -1.1,1.181 -2,3.187 -2,4.459 0,1.271 -0.45,2.311 -1,2.311 -0.55,0 -1,0.628 -1,1.396 0,0.768 -1.575,2.78 -3.5,4.47 -1.925,1.69 -3.5,3.511 -3.5,4.046 0,0.535 -1.911,1.111 -4.247,1.281 -4.731,0.342 -6.126,2.224 -9.183,12.388 -0.865,2.879 -2.84,6.347 -4.553,8 -9.227,8.902 -12.12,12.143 -12.648,14.169 -0.322,1.238 -0.987,2.25 -1.477,2.25 -0.491,0 -0.892,0.627 -0.892,1.393 0,1.13 -1.975,2.607 -3.487,2.607 -0.453,0 -5.470996,-8.594 -8.245996,-14.123 -1.276,-2.543 -3.638,-8.39 -5.249,-12.993 l -2.929,-8.369 1.955,-3.315 c 1.076,-1.823 1.956,-4.134 1.956,-5.135 0,-1.001 0.615,-3.338 1.366,-5.193 1.464,-3.614 1.087,-10.474 -0.634,-11.538 -0.701,-0.433 -0.846,0.814 -0.44,3.782 0.334,2.436 0.187,5.094 -0.327,5.906 -0.633,1.002 -0.939,-0.702 -0.95,-5.288 -0.01,-4.411 -1.061,-10.535 -3.019,-17.591 -1.653,-5.953 -3.432,-14.197 -3.955,-18.319 -1.06,-8.358 -8.581,-32.17 -9.42,-29.824 m -7.542,21.583 c 0.048,1.165 0.285,1.402 0.604,0.605 0.289,-0.722 0.253,-1.585 -0.079,-1.917 -0.332,-0.332 -0.568,0.258 -0.525,1.312 m -5.079,6.476 c 0,0.582 0.45,0.781 1,0.441 0.55,-0.34 1,-0.816 1,-1.059 0,-0.243 -0.45,-0.441 -1,-0.441 -0.55,0 -1,0.477 -1,1.059 m 116.426996,9.462 c 1.06,0.802 2.172,1.214 2.471,0.914 0.628,-0.627 -1.912,-2.412 -3.398,-2.388 -0.55,0.009 -0.133,0.673 0.927,1.474 m -128.340996,0.979 c 0.195,3.548 1.43,4.279 3.211,1.901 1.54,-2.059 1.576,-2.401 0.25,-2.401 -0.851,0 -1.554,0.563 -1.562,1.25 -0.011,0.833 -0.339,0.75 -0.985,-0.25 -0.533,-0.825 -0.945,-1.05 -0.914,-0.5 m 24.947,-0.151 c -0.018,0.467 0.624,2.267 1.427,4 0.802,1.733 1.624,5.176 1.825,7.651 0.312,3.843 0.391,3.604 0.54,-1.639 0.137,-4.812 -0.25,-6.65 -1.792,-8.5 -1.081,-1.299 -1.981,-1.979 -2,-1.512 m 105.549996,3.294 c -0.346,0.904 -0.394,1.879 -0.107,2.167 0.288,0.288 0.524,-0.002 0.524,-0.643 0,-1.73 2.691,-1.415 3.386,0.396 0.33,0.86 1.087,1.263 1.682,0.895 0.7,-0.433 0.363,-1.339 -0.951,-2.564 -2.497,-2.326 -3.711,-2.393 -4.534,-0.251 m -131.582996,3.357 c 0,0.55 0.45,1 1,1 0.55,0 1,-0.45 1,-1 0,-0.55 -0.45,-1 -1,-1 -0.55,0 -1,0.45 -1,1 m 138.600996,-0.164 c -0.254,0.412 0.406,0.814 1.468,0.894 2.297,0.173 2.499,-0.298 0.463,-1.079 -0.807,-0.31 -1.676,-0.227 -1.931,0.185 m 8.399,6.664 c 0,0.825 0.45,1.5 1,1.5 0.55,0 1,-0.675 1,-1.5 0,-0.825 -0.45,-1.5 -1,-1.5 -0.55,0 -1,0.675 -1,1.5 m 0.079,4.083 c 0.048,1.165 0.285,1.402 0.604,0.605 0.289,-0.722 0.253,-1.585 -0.079,-1.917 -0.332,-0.332 -0.568,0.258 -0.525,1.312 m 3,3 c 0.048,1.165 0.285,1.402 0.604,0.605 0.289,-0.722 0.253,-1.585 -0.079,-1.917 -0.332,-0.332 -0.568,0.258 -0.525,1.312 m -188.4409961,50.917 c -0.316,0.825 -0.139,1.5 0.393,1.5 0.533,0 0.969,-0.675 0.969,-1.5 0,-0.825 -0.177,-1.5 -0.393,-1.5 -0.216,0 -0.652,0.675 -0.969,1.5 m -1.559,7.083 c 0.048,1.165 0.285,1.402 0.604,0.605 0.289,-0.722 0.253,-1.585 -0.079,-1.917 -0.332,-0.332 -0.568,0.258 -0.525,1.312 m 28.9210001,10.917 c 0,0.825 0.177,1.5 0.393,1.5 0.216,0 0.652,-0.675 0.969,-1.5 0.316,-0.825 0.139,-1.5 -0.393,-1.5 -0.533,0 -0.969,0.675 -0.969,1.5 m 167.999996,-0.5 c 0,0.55 0.45,1 1,1 0.55,0 1,-0.45 1,-1 0,-0.55 -0.45,-1 -1,-1 -0.55,0 -1,0.45 -1,1 m 14,3 c 0,0.55 0.873,1 1.941,1 1.068,0 2.219,-0.45 2.559,-1 0.351,-0.567 -0.49,-1 -1.941,-1 -1.407,0 -2.559,0.45 -2.559,1 m -196.999996,1 c 0,0.55 0.675,1 1.5,1 0.825,0 1.5,-0.45 1.5,-1 0,-0.55 -0.675,-1 -1.5,-1 -0.825,0 -1.5,0.45 -1.5,1 m 4.435,1.272 c -0.585,1.287 -0.885,2.878 -0.666,3.534 0.48,1.442 3.231,1.607 3.231,0.194 0,-0.55 -0.45,-1 -1,-1 -0.55,0 -1,-0.505 -1,-1.122 0,-0.792 0.427,-0.768 1.452,0.082 1.779,1.476 5.548,0.438 5.548,-1.527 0,-0.788 -0.562,-1.439 -1.25,-1.447 -0.687,-0.007 -2.15,-0.248 -3.25,-0.534 -1.423,-0.371 -2.307,0.154 -3.065,1.82 m 208.564996,-1.272 c 0,0.55 0.477,1 1.059,1 0.582,0 0.781,-0.45 0.441,-1 -0.34,-0.55 -0.816,-1 -1.059,-1 -0.243,0 -0.441,0.45 -0.441,1 m -220.262996,4 c -4.0030001,4.459 -3.1380001,5.357 1.445,1.5 3.672,-3.089 4.809,-3.148 4.848,-0.25 0.028,2.058 0.121,2.095 1.084,0.44 0.835,-1.437 0.591,-2.211 -1.184,-3.75 -2.748,-2.384 -1.971,-2.643 -6.193,2.06 m 194.962996,-2.66 c -0.326,0.85 0.108,1.756 1.006,2.101 2.301,0.882 2.919,-0.244 1.121,-2.042 -1.367,-1.367 -1.622,-1.374 -2.127,-0.059 m 13.113,2.343 c 0.721,0.289 1.584,0.253 1.916,-0.079 0.332,-0.332 -0.258,-0.568 -1.312,-0.525 -1.165,0.048 -1.402,0.285 -0.604,0.604 m -6.813,1.7 c 0,0.888 4.046,1.352 4.558,0.523 0.308,-0.498 -0.592,-0.906 -1.999,-0.906 -1.407,0 -2.559,0.173 -2.559,0.383 m -30.805,3.117 c 0.02,1.65 0.244,2.204 0.498,1.231 0.254,-0.973 0.237,-2.323 -0.037,-3 -0.274,-0.677 -0.481,0.119 -0.461,1.769 m 45.805,2 c 0.685,0.825 1.92,1.5 2.745,1.5 1.22,0 1.267,-0.28 0.255,-1.5 -0.685,-0.825 -1.92,-1.5 -2.745,-1.5 -1.22,0 -1.267,0.28 -0.255,1.5 m -220.7479961,2.5 c 0.223,0.825 1.494,1.583 2.8260001,1.685 1.91,0.145 1.999,0.068 0.422,-0.366 -1.1000001,-0.303 -2.3720001,-1.061 -2.8260001,-1.685 -0.546,-0.749 -0.689,-0.625 -0.422,0.366 m 6.7480001,0 c 0,0.55 0.45,1 1,1 0.55,0 1,-0.45 1,-1 0,-0.55 -0.45,-1 -1,-1 -0.55,0 -1,0.45 -1,1"
     fill-rule="evenodd"
     id="path4" />
</svg>
